<?xml version="1.0" standalone="no"?>
<!DOCTYPE svg PUBLIC "-//W3C//DTD SVG 20010904//EN"
 "http://www.w3.org/TR/2001/REC-SVG-20010904/DTD/svg10.dtd">
<svg version="1.0" xmlns="http://www.w3.org/2000/svg"
 width="186.000000pt" height="211.000000pt" viewBox="0 0 186.000000 211.000000"
 preserveAspectRatio="xMidYMid meet">

<g transform="translate(0.000000,211.000000) scale(0.100000,-0.100000)"
fill="#000000" stroke="none">
<path d="M791 1880 c-2 -102 -2 -197 -1 -212 1 -26 -1 -28 -34 -28 -32 0 -36
3 -36 25 0 29 -4 30 -61 10 -83 -30 -135 -88 -153 -172 -11 -48 10 -145 34
-162 13 -8 20 -25 20 -45 1 -17 7 -42 15 -56 8 -14 14 -52 15 -86 0 -54 -4
-68 -34 -113 -19 -28 -37 -64 -41 -81 -5 -23 -12 -30 -31 -30 -37 0 -66 -73
-67 -170 -1 -62 4 -84 25 -125 14 -27 37 -60 50 -72 29 -27 121 -69 171 -77
35 -7 37 -5 37 19 0 23 4 25 40 25 l40 0 2 -197 c2 -127 3 -158 5 -85 3 82 7
112 16 112 7 0 21 6 31 13 15 11 17 17 7 35 -6 12 -21 22 -32 22 -14 0 -19 5
-17 17 3 17 27 18 311 21 169 1 307 5 307 9 0 4 -61 127 -135 274 -74 147
-135 271 -135 277 0 10 112 62 135 62 8 0 17 5 21 12 5 8 0 9 -16 5 -17 -4
-20 -3 -11 6 29 29 5 21 -56 -19 -37 -24 -72 -44 -78 -44 -6 0 -83 145 -171
323 l-159 322 -5 185 -6 185 -3 -185z m-91 -235 c0 -23 4 -25 46 -25 l45 0 -3
-37 -3 -38 -57 -3 c-32 -2 -58 -4 -58 -5 0 -1 -3 -203 -7 -449 -5 -411 -5
-448 11 -449 9 -1 21 -3 26 -4 6 -1 26 -3 46 -4 34 -1 35 -2 32 -38 -3 -37 -4
-38 -46 -41 -35 -3 -45 -8 -53 -28 -8 -23 -13 -25 -42 -19 -88 20 -158 76
-192 158 -20 47 -19 141 1 200 14 41 19 47 44 47 33 0 44 13 46 52 1 15 13 41
27 58 46 55 60 149 32 217 -8 19 -15 52 -15 73 0 31 -4 39 -24 44 -27 7 -36
37 -36 121 0 69 45 140 110 173 57 28 70 28 70 -3z m197 -165 c44 -85 104
-208 135 -272 l57 -118 -145 0 c-119 0 -144 3 -144 14 0 10 7 13 21 11 15 -3
19 0 17 13 -2 9 -11 16 -21 16 -16 -2 -17 19 -17 254 0 155 4 252 9 247 5 -6
45 -80 88 -165z m-112 -90 c0 -74 -2 -198 -5 -275 l-5 -140 -39 3 c-26 3 -36
0 -32 -7 4 -6 23 -11 42 -11 l34 0 0 -155 0 -155 -56 0 -56 0 7 433 c4 237 10
436 12 440 3 4 26 7 51 5 l47 -3 0 -135z m320 -340 c0 -10 -24 -23 -68 -38
-73 -24 -224 -48 -235 -38 -6 7 -4 84 3 95 1 3 70 4 152 1 123 -4 148 -8 148
-20z m152 -292 c73 -145 129 -266 125 -270 -5 -5 -139 -7 -298 -6 l-289 3 3
50 c8 108 74 255 158 354 35 41 147 131 163 131 3 0 66 -118 138 -262z m-266
186 c-58 -52 -135 -163 -166 -241 -12 -29 -25 -56 -29 -60 -8 -8 -8 280 0 301
4 11 20 16 53 17 25 0 71 7 101 14 93 21 96 19 41 -31z m-181 -549 c0 -8 -4
-15 -10 -15 -5 0 -10 7 -10 15 0 8 5 15 10 15 6 0 10 -7 10 -15z"/>
<path d="M820 1780 c-11 -7 -11 -11 -1 -24 18 -22 31 -20 31 3 0 24 -12 32
-30 21z"/>
<path d="M1124 1115 c-1 -14 2 -25 6 -25 13 0 32 29 25 40 -12 19 -30 10 -31
-15z"/>
<path d="M1164 1025 c-4 -9 -2 -21 4 -27 15 -15 44 -1 40 19 -4 23 -36 29 -44
8z"/>
<path d="M1440 455 c-14 -17 -5 -35 18 -35 13 0 14 2 4 8 -7 5 -10 16 -6 25 8
21 0 22 -16 2z"/>
</g>
</svg>
