<svg xmlns="http://www.w3.org/2000/svg" viewBox="0 0 100 200" width="64" height="128">
  <path d="M57.6,12.2C57.6,5.5,52.5,0,45.5,0S33.3,5.1,33.3,11.4c0,2.1,0.6,4.3,1.6,6.4c2.3,4.9,5.3,12.1,5.3,26.8
    c0,13.5-3.4,19.4-6.5,24.5c-2.1,3.6-4,6.9-4,11.7c0,8.3,6.5,15.1,14.5,15.1c8.1,0,14.5-6.8,14.5-15.1c0-2.8-0.8-5.4-1.9-7.8
    c-2.8-6.1-6.3-13.8-6.3-27.8c0-6.3,0.6-11.7,1.2-16.5c0.6-4.7,1.2-9.1,1.2-14.4c0-2.3,1.6-4.1,3.6-4.1c1.9,0,3.6,1.8,3.6,4.1
    c0,2.8-0.4,5.5-0.9,8.2c-0.5,2.8-1,5.6-1,8.7c0,11.3,3.7,19.1,6.8,25.2c1.7,3.5,3.1,6.6,3.1,10.6c0,13.9-11.1,25.1-24.7,25.1
    c-13.6,0-24.7-11.2-24.7-25.1c0-7.6,3.5-13.6,6.6-19.3c3.3-6.1,6.7-12.5,6.7-25.3c0-15.6-3.4-23.6-6-28.9C33.8,16.2,33,13.4,33,11.4
    C33,4.6,38.1,0,45.5,0S57.6,5.5,57.6,12.2z" fill="#000000"/>
</svg>